# xmcd
#
# Track frame offsets:
#	150
#	23028
#	41639
#	63382
#	85857
#	110143
#	138504
#	160215
#	179833
#	201363
#	223397
#	230838
#
# Disc length: 3416 seconds
#
# Revision: 1
# Processed by: cddbd v1.5.2PL0 Copyright (c) Steve Scherf et al.
# Submitted via: EasyCDDAExtractor 12.1.0.1
#
DISCID=bc0d560c
DTITLE=Jeff Majors - Sacred 2000
DYEAR=2000
DGENRE=Gospel
TTITLE0=Sweet Hour of Prayer
TTITLE1=Hush
TTITLE2=Rock of Ages
TTITLE3=Sonny's Prayer
TTITLE4=Purpose
TTITLE5=Just Another Day
TTITLE6=Wade in the Water
TTITLE7=Christ the Redeemer
TTITLE8=No, Not One
TTITLE9=She Cries (Proverbs 8)
TTITLE10=Song of Solomon
TTITLE11=Lift Every Voice
EXTD=
EXTT0=
EXTT1=
EXTT2=
EXTT3=
EXTT4=
EXTT5=
EXTT6=
EXTT7=
EXTT8=
EXTT9=
EXTT10=
EXTT11=
PLAYORDER=
